# xmcd
#
# Track frame offsets:
#	150
#	13315
#	43737
#
# Disc length: 793 seconds
#
# Revision: 1
# Processed by: cddbd v1.5.2PL0 Copyright (c) Steve Scherf et al.
# Submitted via: EasyCDDAExtractor 10.0.3.1
#
DISCID=21031703
DTITLE=Various Artist - PIŁKARSKIE HITY
DYEAR=1990
DGENRE=
TTITLE0=Bez Nienawiści - RADIO EDIT
TTITLE1=Bez Nienawiści - EXTENDED VERSION
TTITLE2=Bez Nienawiści - INSTRUMENTAL
EXTD=YEAR: 1990
EXTT0=
EXTT1=
EXTT2=
PLAYORDER=
